<svg xmlns="http://www.w3.org/2000/svg" width="16.425" height="13.643" viewBox="0 0 16.425 13.643">
  <defs>
    <style>
      .cls-1 {
        fill: #fff;
      }
    </style>
  </defs>
  <path id="Path_91534" data-name="Path 91534" class="cls-1" d="M15.5,5.533l.026.006H4.537L7.992,2.076A.907.907,0,0,0,7.992.8L7.454.263a.9.9,0,0,0-1.269,0L.262,6.184a.905.905,0,0,0,0,1.274l5.923,5.923a.9.9,0,0,0,1.269,0l.538-.538a.89.89,0,0,0,.262-.635.863.863,0,0,0-.262-.623L4.5,8.1H15.514a.931.931,0,0,0,.911-.921V6.421A.913.913,0,0,0,15.5,5.533Z" transform="translate(16.425 13.643) rotate(180)"/>
</svg>
